<svg width="48" height="48" xmlns="http://www.w3.org/2000/svg"><style>path{fill:blue;}@media(prefers-color-scheme: dark){path{fill: white;}}</style><path d="M24.482 6.092a17.518 17.518 0 0 0-17.52 17.517 17.518 17.518 0 0 0 17.52 17.518A17.518 17.518 0 0 0 42 23.609 17.518 17.518 0 0 0 24.482 6.092Zm-.627 8.758a3.128 3.128 0 0 1 3.13 3.129 3.128 3.128 0 0 1-3.13 3.128 3.128 3.128 0 0 1-3.126-3.128 3.128 3.128 0 0 1 3.126-3.13zm10.012 0a3.128 3.128 0 0 1 3.127 3.129 3.128 3.128 0 0 1-3.127 3.128 3.128 3.128 0 0 1-3.129-3.128 3.128 3.128 0 0 1 3.13-3.13zm-5.549 8.181a3.128 3.128 0 0 1 2.108.371 3.128 3.128 0 0 1 1.564 2.71h-6.258a3.128 3.128 0 0 1 1.565-2.71 3.128 3.128 0 0 1 1.021-.37z"/><path d="M10 24c0 1.348 0 2.696-.667 3.363-.666.667-2 .652-2.666 1.311-.667.66-.667 1.993 0 2.66.666.666 2 .666 2 1.166 0 .5-1.334 1.5-1.662 2.5-.328 1 .348 2 1.348 2.167 1 .166 2.324-.5 2.652-.153.328.347-.338 1.709-.005 2.709s1.667 1.638 2.667 1.291c1-.347 1.666-1.68 3.333-2.347C18.667 38 21.333 38 24 38" transform="matrix(1.2513 0 0 1.2513 -5.55 -6.422)"/></svg>