<?xml version="1.0" encoding="UTF-8" standalone="no"?>
<!-- Created with Inkscape (http://www.inkscape.org/) -->

<svg
   width="48"
   height="48"
   viewBox="0 0 48 48"
   version="1.1"
   id="svg1"
   xmlns="http://www.w3.org/2000/svg"
   xmlns:svg="http://www.w3.org/2000/svg">
  <defs
     id="defs1" />
  <g
     id="layer1">
    <path
       d="M 24.482422,6.0917969 A 17.518324,17.518324 0 0 0 6.9628906,23.609375 17.518324,17.518324 0 0 0 24.482422,41.126953 17.518324,17.518324 0 0 0 42,23.609375 17.518324,17.518324 0 0 0 24.482422,6.0917969 Z m -0.626953,8.7578121 a 3.1282723,3.1282723 0 0 1 3.128906,3.128907 3.1282723,3.1282723 0 0 1 -3.128906,3.128906 3.1282723,3.1282723 0 0 1 -3.126953,-3.128906 3.1282723,3.1282723 0 0 1 3.126953,-3.128907 z m 10.011718,0 a 3.1282723,3.1282723 0 0 1 3.126954,3.128907 3.1282723,3.1282723 0 0 1 -3.126954,3.128906 3.1282723,3.1282723 0 0 1 -3.128906,-3.128906 3.1282723,3.1282723 0 0 1 3.128906,-3.128907 z m -5.548828,8.181641 a 3.1282723,3.1282723 0 0 1 2.107422,0.371094 3.1282723,3.1282723 0 0 1 1.564453,2.708984 h -3.128906 -3.128906 a 3.1282723,3.1282723 0 0 1 1.564453,-2.708984 3.1282723,3.1282723 0 0 1 1.021484,-0.371094 z"
       style="fill:#2563eb;fill-opacity:1;stroke-width:4;stroke-linecap:square;paint-order:stroke fill markers"
       id="path17" />
    <path
       style="fill:#2563eb;fill-opacity:1;stroke:none;stroke-width:0.799163;stroke-linecap:round;stroke-dasharray:none;stroke-opacity:1;paint-order:stroke fill markers"
       d="m 10,24 c 0,1.348196 0,2.696392 -0.66668,3.363059 C 8.66664,28.029725 7.3333333,28.014863 6.6666667,28.674111 6,29.33336 6,30.666667 6.66668,31.333334 7.33336,32 8.6666667,32 8.6666534,32.50001 8.66664,33.00002 7.3333333,34 7.0050302,35.00001 6.676727,36.00002 7.353427,37 8.3534402,37.16666 c 1.0000133,0.16666 2.3232738,-0.499993 2.6515768,-0.152643 0.328303,0.347351 -0.33835,1.708664 -0.005,2.70867 0.333347,1.000007 1.666654,1.638653 2.66666,1.291303 1.000007,-0.34735 1.66666,-1.680657 3.333354,-2.347323 C 18.66672,38 21.333333,38 24,38"
       id="path14"
       transform="matrix(1.2513089,0,0,1.2513089,-5.5497387,-6.4221365)" />
  </g>
</svg>
